<svg width="512" height="428" viewBox="0 0 512 428" fill="none" xmlns="http://www.w3.org/2000/svg">
	<path
		d="M469.333 64.667H362.667V43.333C362.667 19.802 343.532 0.666016 320 0.666016H192C168.469 0.666016 149.333 19.801 149.333 43.333V64.666H42.667C19.135 64.667 4.43532e-07 83.802 4.43532e-07 107.333V171.333C4.43532e-07 194.865 19.135 214 42.667 214H213.334V203.333C213.333 201.932 213.608 200.544 214.144 199.25C214.68 197.955 215.466 196.779 216.456 195.788C217.447 194.798 218.623 194.012 219.918 193.476C221.212 192.94 222.6 192.665 224.001 192.666H288.001C289.402 192.665 290.79 192.94 292.084 193.476C293.379 194.012 294.555 194.798 295.546 195.788C296.536 196.779 297.322 197.955 297.858 199.25C298.394 200.544 298.669 201.932 298.668 203.333V214H469.335C492.865 214 512 194.865 512 171.333V107.333C512 83.802 492.865 64.667 469.333 64.667ZM320 64.667H192V43.333H320V64.667ZM506.083 225.51C504.305 224.628 502.316 224.26 500.339 224.446C498.363 224.631 496.478 225.364 494.895 226.562C487.312 232.302 478.478 235.333 469.332 235.333H298.667V267.333C298.668 268.734 298.393 270.122 297.857 271.416C297.321 272.711 296.535 273.887 295.545 274.878C294.554 275.868 293.378 276.654 292.083 277.19C290.789 277.726 289.401 278.001 288 278H224C222.599 278.001 221.211 277.726 219.917 277.19C218.622 276.654 217.446 275.868 216.455 274.878C215.465 273.887 214.679 272.711 214.143 271.416C213.607 270.122 213.332 268.734 213.333 267.333V235.333H42.667C33.521 235.333 24.688 232.302 17.104 226.562C15.5255 225.355 13.6394 224.616 11.661 224.43C9.68262 224.244 7.69181 224.618 5.916 225.51C4.1386 226.394 2.64319 227.757 1.59802 229.444C0.55286 231.132 -0.000571936 233.078 4.43532e-07 235.063L4.43532e-07 384.667C4.43532e-07 408.198 19.135 427.334 42.667 427.334H469.334C492.865 427.334 512.001 408.199 512.001 384.667V235.063C512.001 233.078 511.447 231.132 510.402 229.444C509.356 227.756 507.861 226.394 506.083 225.51Z"
		fill="#CA3C3C" />
</svg>